<?xml version="1.0" encoding="UTF-8"?>
<svg id="Layer_1" xmlns="http://www.w3.org/2000/svg" version="1.1" viewBox="0 0 152 152">
  <!-- Generator: Adobe Illustrator 29.8.1, SVG Export Plug-In . SVG Version: 2.1.1 Build 2)  -->
  <defs>
    <style>
      .st0 {
        fill: none;
      }

      .st1 {
        fill: #4285f4;
      }

      .st2 {
        fill: #1a73e8;
      }

      .st3 {
        fill: #34a853;
      }

      .st4 {
        fill: #fbbc04;
      }

      .st5 {
        fill: #fff;
      }

      .st6 {
        fill: #ea4335;
      }

      .st7 {
        fill: #1967d2;
      }

      .st8 {
        fill: #188038;
      }
    </style>
  </defs>
  <rect class="st0" x="-20" y="-20" width="192" height="192"/>
  <g>
    <polygon class="st5" points="116 36 80 32 36 36 32 76 36 116 76 121 116 116 120 75 116 36"/>
    <path class="st2" d="M52.41,98.06c-2.99-2.02-5.06-4.97-6.19-8.87l6.94-2.86c.63,2.4,1.73,4.26,3.3,5.58,1.56,1.32,3.46,1.97,5.68,1.97s4.22-.69,5.85-2.07,2.45-3.14,2.45-5.27-.86-3.96-2.58-5.34-3.88-2.07-6.46-2.07h-4.01v-6.87h3.6c2.22,0,4.09-.6,5.61-1.8,1.52-1.2,2.28-2.84,2.28-4.93,0-1.86-.68-3.34-2.04-4.45s-3.08-1.67-5.17-1.67-3.66.54-4.86,1.63-2.07,2.43-2.62,4.01l-6.87-2.86c.91-2.58,2.58-4.86,5.03-6.83s5.58-2.96,9.38-2.96c2.81,0,5.34.54,7.58,1.63s4,2.6,5.27,4.52c1.27,1.93,1.9,4.09,1.9,6.49s-.59,4.52-1.77,6.22c-1.18,1.7-2.63,3-4.35,3.91v.41c2.27.95,4.12,2.4,5.58,4.35,1.45,1.95,2.18,4.28,2.18,7s-.69,5.15-2.07,7.28-3.29,3.81-5.71,5.03c-2.43,1.22-5.16,1.84-8.19,1.84-3.51.01-6.75-1-9.74-3.02Z"/>
    <path class="st2" d="M95,63.62l-7.58,5.51-3.81-5.78,13.67-9.86h5.24v46.51h-7.52v-36.38Z"/>
    <polygon class="st6" points="116 152 152 116 134 108 116 116 108 134 116 152"/>
    <polygon class="st3" points="28 134 36 152 116 152 116 116 36 116 28 134"/>
    <path class="st1" d="M12,0C5.37,0,0,5.37,0,12v104l18,8,18-8V36h80l8-18L116,0H12Z"/>
    <path class="st8" d="M0,116v24c0,6.63,5.37,12,12,12h24v-36H0Z"/>
    <polygon class="st4" points="116 36 116 116 152 116 152 36 134 28 116 36"/>
    <path class="st7" d="M152,36V12c0-6.63-5.37-12-12-12h-24v36h36Z"/>
  </g>
</svg>